<svg width="32" height="32" viewBox="0 0 33 33" fill="none" xmlns="http://www.w3.org/2000/svg">
<path d="M31.978 6.38993C33.2274 5.14051 33.2274 3.11146 31.978 1.86205C30.7286 0.612634 28.6995 0.612634 27.4501 1.86205L16.925 12.3971L6.38999 1.87204C5.14057 0.622629 3.11152 0.622629 1.86211 1.87204C0.612695 3.12146 0.612695 5.15051 1.86211 6.39992L12.3972 16.925L1.87211 27.46C0.622691 28.7095 0.622691 30.7385 1.87211 31.9879C3.12152 33.2373 5.15057 33.2373 6.39998 31.9879L16.925 21.4529L27.4601 31.9779C28.7095 33.2273 30.7386 33.2273 31.988 31.9779C33.2374 30.7285 33.2374 28.6995 31.988 27.4501L21.4529 16.925L31.978 6.38993Z" fill="#635FC7"/>
</svg>
