<svg width="32" height="28" viewBox="0 0 32 28" fill="none" xmlns="http://www.w3.org/2000/svg">
<path d="M23.6187 4.61875L31.2938 12.2937C31.7438 12.7437 32 13.3625 32 14C32 14.6375 31.7438 15.2562 31.2938 15.7062L23.6187 23.3813C23.2187 23.7813 22.6812 24 22.1187 24C20.95 24 20 23.05 20 21.8813V18H12C10.8937 18 10 17.1063 10 16V12C10 10.8937 10.8937 10 12 10H20V6.11875C20 4.95 20.95 4 22.1187 4C22.6812 4 23.2187 4.225 23.6187 4.61875ZM10 4H6C4.89375 4 4 4.89375 4 6V22C4 23.1063 4.89375 24 6 24H10C11.1063 24 12 24.8937 12 26C12 27.1063 11.1063 28 10 28H6C2.6875 28 0 25.3125 0 22V6C0 2.6875 2.6875 0 6 0H10C11.1063 0 12 0.89375 12 2C12 3.10625 11.1063 4 10 4Z" fill="black"/>
</svg>
